# xmcd
#
# Track frame offsets:
#	150
#	16161
#	32106
#	48818
#	90202
#
# Disc length: 1502 seconds
#
# Revision: 0
# Processed by: cddbd v1.5.2PL0 Copyright (c) Steve Scherf et al.
# Submitted via: EasyCDDAExtractor 16.0.9.1
#
DISCID=2805dc05
DTITLE=Double P. - Sex and Rum
DYEAR=2004
DGENRE=Dance
TTITLE0=Sex and Rum (Radio Edit)
TTITLE1=Sex and Rum (Karaoke Edit)
TTITLE2=Sex and Rum (Malle Mix)
TTITLE3=Sex and Rum (Club Mix)
TTITLE4=Video
EXTD=
EXTT0=
EXTT1=
EXTT2=
EXTT3=
EXTT4=
PLAYORDER=
